<svg xmlns="http://www.w3.org/2000/svg" viewBox="0 0 128 127" xmlns:v="https://vecta.io/nano"><g fill="none" stroke-width="2"><path stroke="#c0f2f1" vector-effect="non-scaling-stroke" d="M83.91 14.46q-14.34-3.9-28.63-7.67c-4.31-1.13-8.91-.87-12.03 1.96Q29.8 20.95 9.2 42.8c-3.08 3.26-5.02 7.31-3.95 11.45q4.13 15.93 8.49 32a.31.31-23.9 0 0 .47.18q3.91-2.57 8.54-3.43a.52.52 77.3 0 0 .41-.65q-3.02-11.26-5.91-22.09c-1.77-6.63-1.68-9.95 3.06-14.7q12.63-12.62 25.25-25.25c3.08-3.07 6.96-3.69 11.37-2.55q11.39 2.94 23.18 6.07a.72.7 14.3 0 0 .88-.51q1.27-5.01 3.18-8.19a.45.45-66.4 0 0-.26-.67"/><path vector-effect="non-scaling-stroke" d="M115.1 25.62a15.13 15.13 0 0 0-30.26 0 15.13 15.13 0 0 0 30.26 0M30.75 81.03Q43.37 85.67 46.2 97.2a.85.8 89.5 0 0 .59.62l24.6 6.57q2.56.69 4.54-1.19 12.75-12.16 24.93-24.87c2.27-2.37 2.93-3.93 2.14-7.08q-3.83-15.18-6.42-23.95a.9.88-.5 0 0-.63-.61Q83.01 43.5 79.08 30.8a.96.91 88.9 0 0-.62-.63q-11.43-3.28-22.98-6.08-3.45-.83-5.42.97-6.33 5.81-24.67 24.33-3.61 3.64-2.21 8.63 3.06 10.93 5.61 20.84.41 1.6 1.96 2.17" stroke="#cfdcf7"/><path stroke="#c0f2f1" vector-effect="non-scaling-stroke" d="M67.58 110.03q-11.38-2.97-22.79-5.85a.49.47-76.5 0 0-.58.37q-.95 4.55-3.55 8.44a.3.29 24.9 0 0 .17.45q15.8 4.27 31.67 8.31c5.11 1.3 8.82-.73 12.67-4.49q15.84-15.45 31.55-31.03 5.93-5.88 3.97-13.17-4.31-15.98-8.53-32.08a.5.5-26.1 0 0-.79-.27q-3.51 2.71-8.29 3.57a.47.47-12.5 0 0-.37.58q3.03 11.29 6 22.49c1.88 7.07 2.04 10.27-3.02 15.34q-12.25 12.25-24.5 24.5c-4.28 4.27-7.59 4.41-13.61 2.84"/><path stroke="#cfdcf7" vector-effect="non-scaling-stroke" d="M40.53 101.82a15.15 15.15 0 1 0-30.3 0 15.15 15.15 0 1 0 30.3 0"/></g><path fill="#fff" d="M0 0h128v127H0V0zm83.91 14.46q-14.34-3.9-28.63-7.67c-4.31-1.13-8.91-.87-12.03 1.96Q29.8 20.95 9.2 42.8c-3.08 3.26-5.02 7.31-3.95 11.45q4.13 15.93 8.49 32a.31.31-23.9 0 0 .47.18q3.91-2.57 8.54-3.43a.52.52 77.3 0 0 .41-.65q-3.02-11.26-5.91-22.09c-1.77-6.63-1.68-9.95 3.06-14.7q12.63-12.62 25.25-25.25c3.08-3.07 6.96-3.69 11.37-2.55q11.39 2.94 23.18 6.07a.72.7 14.3 0 0 .88-.51q1.27-5.01 3.18-8.19a.45.45-66.4 0 0-.26-.67zm31.19 11.16a15.13 15.13 0 0 0-30.26 0 15.13 15.13 0 0 0 30.26 0zM30.75 81.03Q43.37 85.67 46.2 97.2a.85.8 89.5 0 0 .59.62l24.6 6.57q2.56.69 4.54-1.19 12.75-12.16 24.93-24.87c2.27-2.37 2.93-3.93 2.14-7.08q-3.83-15.18-6.42-23.95a.9.88-.5 0 0-.63-.61Q83.01 43.5 79.08 30.8a.96.91 88.9 0 0-.62-.63q-11.43-3.28-22.98-6.08-3.45-.83-5.42.97-6.33 5.81-24.67 24.33-3.61 3.64-2.21 8.63 3.06 10.93 5.61 20.84.41 1.6 1.96 2.17zm36.83 29q-11.38-2.97-22.79-5.85a.49.47-76.5 0 0-.58.37q-.95 4.55-3.55 8.44a.3.29 24.9 0 0 .17.45q15.8 4.27 31.67 8.31c5.11 1.3 8.82-.73 12.67-4.49q15.84-15.45 31.55-31.03 5.93-5.88 3.97-13.17-4.31-15.98-8.53-32.08a.5.5-26.1 0 0-.79-.27q-3.51 2.71-8.29 3.57a.47.47-12.5 0 0-.37.58q3.03 11.29 6 22.49c1.88 7.07 2.04 10.27-3.02 15.34q-12.25 12.25-24.5 24.5c-4.28 4.27-7.59 4.41-13.61 2.84zm-27.05-8.21a15.15 15.15 0 1 0-30.3 0 15.15 15.15 0 1 0 30.3 0z"/><path fill="#80e4e2" d="M83.91 14.46a.45.45-66.4 0 1 .26.67q-1.91 3.18-3.18 8.19a.72.7 14.3 0 1-.88.51q-11.79-3.13-23.18-6.07c-4.41-1.14-8.29-.52-11.37 2.55Q32.94 32.94 20.31 45.56c-4.74 4.75-4.83 8.07-3.06 14.7q2.89 10.83 5.91 22.09a.52.52 77.3 0 1-.41.65q-4.63.86-8.54 3.43a.31.31-23.9 0 1-.47-.18q-4.36-16.07-8.49-32c-1.07-4.14.87-8.19 3.95-11.45Q29.8 20.95 43.25 8.75c3.12-2.83 7.72-3.09 12.03-1.96q14.29 3.77 28.63 7.67z"/><g fill="#9eb9ef"><circle cx="99.97" cy="25.62" r="15.13"/><path d="M30.75 81.03q-1.55-.57-1.96-2.17-2.55-9.91-5.61-20.84-1.4-4.99 2.21-8.63 18.34-18.52 24.67-24.33 1.97-1.8 5.42-.97 11.55 2.8 22.98 6.08a.96.91 88.9 0 1 .62.63q3.93 12.7 16.87 15.89a.9.88-.5 0 1 .63.61q2.59 8.77 6.42 23.95c.79 3.15.13 4.71-2.14 7.08Q88.68 91.04 75.93 103.2q-1.98 1.88-4.54 1.19l-24.6-6.57a.85.8 89.5 0 1-.59-.62q-2.83-11.53-15.45-16.17z"/></g><path fill="#80e4e2" d="M67.58 110.03c6.02 1.57 9.33 1.43 13.61-2.84q12.25-12.25 24.5-24.5c5.06-5.07 4.9-8.27 3.02-15.34q-2.97-11.2-6-22.49a.47.47-12.5 0 1 .37-.58q4.78-.86 8.29-3.57a.5.5-26.1 0 1 .79.27q4.22 16.1 8.53 32.08 1.96 7.29-3.97 13.17-15.71 15.58-31.55 31.03c-3.85 3.76-7.56 5.79-12.67 4.49q-15.87-4.04-31.67-8.31a.3.29 24.9 0 1-.17-.45q2.6-3.89 3.55-8.44a.49.47-76.5 0 1 .58-.37q11.41 2.88 22.79 5.85z"/><circle fill="#9eb9ef" cx="25.38" cy="101.82" r="15.15"/></svg>