<svg xmlns="http://www.w3.org/2000/svg" viewBox="0 0 359 266" xmlns:v="https://vecta.io/nano"><path fill="#80e4e2" d="M108.742 89.62l-17.82-.23a.71.74.4 0 0-.72.74l-.04 83.49-1.91.63a.57.46 73.4 0 1-.62-.42q-6.24-22.94-12.36-45.93c-3.63-13.62-6.26-20.9.72-31.78l3.43 1.15a.87.8 31.3 0 0 .84-.17q2.67-2.56-1.43-3.78 29.2-29.47 58.74-58.52c12.5-12.29 19.9-9.98 35.63-5.78q21.91 5.86 44.58 12.15a.68.68 0 0 1 .4 1.01q-4.69 7.59-5.8 15.93a.7.7 0 0 1-.88.59q-22-6.09-44.49-11.89c-9.49-2.45-14.9.11-21.91 6.92q-18.32 17.8-36.36 35.89z"/><g fill="#9eb9ef"><circle cx="247.292" cy="61.77" r="28.05"/><path d="M218.702 89.58c-19.24-.83-37.67 8.46-46.08 25.74-6.95 14.29-4.96 32.6 5.52 44.61 13.94 15.98 35.18 21.2 55.56 13.98q.18.21.24.47a.7 1.08 54.9 0 1-.34.84q-13.12 13.08-26.35 26.05c-6.93 6.78-9.78 7.14-18.62 4.83q-19.85-5.18-39.53-10.44a1.76 1.74 89.9 0 1-1.24-1.25q-6.42-24.07-30.56-30.39a1.37 1.28 88.7 0 1-.92-.94l-7.64-27.27-.04-28.52a.42.42 0 0 1 .42-.42h47.02a.56.56 0 0 1 .56.56v69.15a.64.65 6.1 0 0 .5.63c3 .65 2.75-.07 2.75-2.29q0-40.79 0-81.58c0-2.05.88-5.06-2.78-3.88a.72.65 82.8 0 0-.46.66l-.18 12.57a.52.5 0 0 1-.52.5l-43.81.14q10.91-11.03 21.89-21.99c5.25-5.24 14.66-16 21.42-20.91q4.26-3.09 10.41-1.45 20.87 5.54 42.05 10.96a.89.91 89.5 0 1 .64.62q3.05 10.73 10.09 19.02z"/></g><path d="M78.832 93.32q4.1 1.22 1.43 3.78a.87.8 31.3 0 1-.84.17l-3.43-1.15q-22.92-8.16-43.18 4.78a1.33 1.32 73.9 0 0-.61 1.12v62.82a1.09 1.11 15.5 0 0 .52.94q22.5 14.09 46.96 3.6a.48.58 67.8 0 1 .73.23l.7 1.77a.51.62 66.1 0 1-.35.7q-25.03 11.63-48.47-2.82c-32.01-19.74-24.87-64.78 9.95-76.79q18.64-6.43 36.59.85zm29.91-3.7l-.1 13.06a.5.59.5 0 0 .49.59l3.07.06 43.81-.14a.52.5 0 0 0 .52-.5l.18-12.57a.72.65 82.8 0 1 .46-.66c3.66-1.18 2.78 1.83 2.78 3.88q0 40.79 0 81.58c0 2.22.25 2.94-2.75 2.29a.64.65 6.1 0 1-.5-.63v-69.15a.56.56 0 0 0-.56-.56h-47.02a.42.42 0 0 0-.42.42l.04 28.52v38.81q.13 1.16-.19 2.22a.72.63 6.4 0 1-.66.46l-11.71.29-5.3-.38a.61.54.7 0 1-.57-.52l-.15-3.07.04-83.49a.71.74.4 0 1 .72-.74zm109.96-.04q22.57 1.46 36.45 19.07 9.63 13.59 7.87 30.44-5.15 25.45-29.32 34.82c-20.38 7.22-41.62 2-55.56-13.98-10.48-12.01-12.47-30.32-5.52-44.61 8.41-17.28 26.84-26.57 46.08-25.74zm34.21 65.54c12.98-18.6 7.12-42.67-11.71-54.54q-7.45-5.24-16.56-6.61-18.89-3.56-35.18 7.06a1.12 1.12 0 0 0-.51.94v62.75a1.35 1.33 16.9 0 0 .61 1.12c20.77 13.44 48.61 9.87 63.35-10.72z"/><path fill="#80e4e2" d="M271.902 95.39q.09 39.67.05 79.39c0 1.66-.51 2.83 1.99 2.87q-24.08 24.25-48.27 48.39c-8.88 8.87-13.44 14.5-24.52 14.3q-3.49-.06-11.74-2.28-25.63-6.89-51.57-13.79a.48.47 24 0 1-.28-.72q5.05-7.68 6.56-16.18a.45.46 11.5 0 1 .56-.38q18.73 4.71 37.4 9.64c15.22 4.01 20.25 5.82 31.21-4.89q23.16-22.59 45.64-45.86c7.57-7.83 9.37-16.71 4.09-26.79q1.76-16.85-7.87-30.44l-2.93-11.76a.55.52 78.4 0 1 .41-.67q9.16-1.57 16.14-6.79.8-.6.91.39.34 2.91 2.22 5.57z"/><path fill="#9eb9ef" d="M224.642 93.97q7.13 5.57 16.06 7.19.54.72 1.06 2.65 8.14 30.17 11.09 41.71c.91 3.52.49 6.15.06 9.6-14.74 20.59-42.58 24.16-63.35 10.72a1.35 1.33 16.9 0 1-.61-1.12v-62.75a1.12 1.12 0 0 1 .51-.94q16.29-10.62 35.18-7.06z"/><path fill="#fff" d="M224.642 93.97q9.11 1.37 16.56 6.61l-.5.58q-8.93-1.62-16.06-7.19z"/><path d="M277.882 117.87l-1.68-1.89q-1-1.14-1 .45l.25 59.23q.09 1.79-1.51 1.99c-2.5-.04-1.99-1.21-1.99-2.87q.04-39.72-.05-79.39l.1-5.45a.51.54.6 0 1 .51-.53h5.12a1.36 1.16 63.4 0 1 .87.37l64.78 62.04q.67.64.67-.28V90.12a.69.65 82.9 0 1 .48-.66q1.14-.31 2.29 0a.65.71 6.9 0 1 .48.67v86.68a.56.56 0 0 1-.56.56h-6.96a1.8 1.76 66.5 0 1-1.23-.5z"/><path fill="#80e4e2" d="M277.882 117.87q2.3 11.72 5.47 23.2 3.01 10.94 2.97 14.81-.12 11.99-10.87 19.78l-.25-59.23q0-1.59 1-.45z"/><path fill="#9eb9ef" d="M108.742 174.62q10.91.18 18.52 6.69c14.91 12.74 12.68 37.5-5.1 46.36-20.08 10-41.98-4.48-40.83-26.73q.75-14.64 14.85-23.35l11.71-.29a.72.63 6.4 0 0 .66-.46q.32-1.06.19-2.22z"/></svg>